<?xml version="1.0" encoding="UTF-8" standalone="no"?>
<!DOCTYPE svg PUBLIC "-//W3C//DTD SVG 1.1//EN"
 "http://www.w3.org/Graphics/SVG/1.1/DTD/svg11.dtd">
<!-- Generated by graphviz version 2.42.4 (0)
 -->
<!-- Title: G Pages: 1 -->
<svg width="2103pt" height="2317pt"
 viewBox="0.00 0.00 2102.68 2317.40" xmlns="http://www.w3.org/2000/svg" xmlns:xlink="http://www.w3.org/1999/xlink">
<g id="graph0" class="graph" transform="scale(1 1) rotate(0) translate(25.2 2292.2)">
<title>G</title>
<polygon fill="white" stroke="transparent" points="-25.2,25.2 -25.2,-2292.2 2077.48,-2292.2 2077.48,25.2 -25.2,25.2"/>
<g id="clust1" class="cluster">
<title>cluster_0</title>
<path fill="#eff6ff" stroke="#cbd5e1" d="M177.68,-2170C177.68,-2170 895.63,-2170 895.63,-2170 901.63,-2170 907.63,-2176 907.63,-2182 907.63,-2182 907.63,-2247 907.63,-2247 907.63,-2253 901.63,-2259 895.63,-2259 895.63,-2259 177.68,-2259 177.68,-2259 171.68,-2259 165.68,-2253 165.68,-2247 165.68,-2247 165.68,-2182 165.68,-2182 165.68,-2176 171.68,-2170 177.68,-2170"/>
<text text-anchor="middle" x="536.65" y="-2243.8" font-family="Helvetica,sans-Serif" font-weight="bold" font-size="14.00">Acesso / Autenticação</text>
</g>
<g id="clust2" class="cluster">
<title>cluster_1</title>
<path fill="#f0fdf4" stroke="#cbd5e1" d="M160,-1933C160,-1933 1326.13,-1933 1326.13,-1933 1332.13,-1933 1338.13,-1939 1338.13,-1945 1338.13,-1945 1338.13,-2010 1338.13,-2010 1338.13,-2016 1332.13,-2022 1326.13,-2022 1326.13,-2022 160,-2022 160,-2022 154,-2022 148,-2016 148,-2010 148,-2010 148,-1945 148,-1945 148,-1939 154,-1933 160,-1933"/>
<text text-anchor="middle" x="743.06" y="-2006.8" font-family="Helvetica,sans-Serif" font-weight="bold" font-size="14.00">Painel / Relatórios</text>
</g>
<g id="clust3" class="cluster">
<title>cluster_2</title>
<path fill="#fff7ed" stroke="#cbd5e1" d="M170.61,-1622C170.61,-1622 2032.28,-1622 2032.28,-1622 2038.28,-1622 2044.28,-1628 2044.28,-1634 2044.28,-1634 2044.28,-1699 2044.28,-1699 2044.28,-1705 2038.28,-1711 2032.28,-1711 2032.28,-1711 170.61,-1711 170.61,-1711 164.61,-1711 158.61,-1705 158.61,-1699 158.61,-1699 158.61,-1634 158.61,-1634 158.61,-1628 164.61,-1622 170.61,-1622"/>
<text text-anchor="middle" x="1101.44" y="-1695.8" font-family="Helvetica,sans-Serif" font-weight="bold" font-size="14.00">Transações</text>
</g>
<g id="clust4" class="cluster">
<title>cluster_3</title>
<path fill="#fdf2f8" stroke="#cbd5e1" d="M188.99,-1163C188.99,-1163 1998.34,-1163 1998.34,-1163 2004.34,-1163 2010.34,-1169 2010.34,-1175 2010.34,-1175 2010.34,-1240 2010.34,-1240 2010.34,-1246 2004.34,-1252 1998.34,-1252 1998.34,-1252 188.99,-1252 188.99,-1252 182.99,-1252 176.99,-1246 176.99,-1240 176.99,-1240 176.99,-1175 176.99,-1175 176.99,-1169 182.99,-1163 188.99,-1163"/>
<text text-anchor="middle" x="1093.66" y="-1236.8" font-family="Helvetica,sans-Serif" font-weight="bold" font-size="14.00">Categorias / Subcategorias</text>
</g>
<g id="clust5" class="cluster">
<title>cluster_4</title>
<path fill="#f5f3ff" stroke="#cbd5e1" d="M183.33,-704C183.33,-704 903.4,-704 903.4,-704 909.4,-704 915.4,-710 915.4,-716 915.4,-716 915.4,-781 915.4,-781 915.4,-787 909.4,-793 903.4,-793 903.4,-793 183.33,-793 183.33,-793 177.33,-793 171.33,-787 171.33,-781 171.33,-781 171.33,-716 171.33,-716 171.33,-710 177.33,-704 183.33,-704"/>
<text text-anchor="middle" x="543.37" y="-777.8" font-family="Helvetica,sans-Serif" font-weight="bold" font-size="14.00">Orçamentos</text>
</g>
<g id="clust6" class="cluster">
<title>cluster_5</title>
<path fill="#ecfeff" stroke="#cbd5e1" d="M169.19,-467C169.19,-467 1970.76,-467 1970.76,-467 1976.76,-467 1982.76,-473 1982.76,-479 1982.76,-479 1982.76,-544 1982.76,-544 1982.76,-550 1976.76,-556 1970.76,-556 1970.76,-556 169.19,-556 169.19,-556 163.19,-556 157.19,-550 157.19,-544 157.19,-544 157.19,-479 157.19,-479 157.19,-473 163.19,-467 169.19,-467"/>
<text text-anchor="middle" x="1069.98" y="-540.8" font-family="Helvetica,sans-Serif" font-weight="bold" font-size="14.00">Instituições / Contas</text>
</g>
<g id="clust7" class="cluster">
<title>cluster_6</title>
<path fill="#fefce8" stroke="#cbd5e1" d="M165.66,-8C165.66,-8 1396.13,-8 1396.13,-8 1402.13,-8 1408.13,-14 1408.13,-20 1408.13,-20 1408.13,-85 1408.13,-85 1408.13,-91 1402.13,-97 1396.13,-97 1396.13,-97 165.66,-97 165.66,-97 159.66,-97 153.66,-91 153.66,-85 153.66,-85 153.66,-20 153.66,-20 153.66,-14 159.66,-8 165.66,-8"/>
<text text-anchor="middle" x="780.9" y="-81.8" font-family="Helvetica,sans-Serif" font-weight="bold" font-size="14.00">Comunicação / Apoio</text>
</g>
<!-- usuario -->
<g id="node1" class="node">
<title>usuario</title>
<polygon fill="#f8fbff" stroke="transparent" points="84,-1028 0,-1028 0,-982 84,-982 84,-1028"/>
<polygon fill="#dbeafe" stroke="transparent" points="7,-988 7,-1022 77,-1022 77,-988 7,-988"/>
<polygon fill="none" stroke="#4b5563" points="7,-988 7,-1022 77,-1022 77,-988 7,-988"/>
<text text-anchor="start" x="18" y="-1003.2" font-family="Helvetica,sans-Serif" font-weight="bold" font-size="11.00">Usuário</text>
</g>
<!-- uc_0_0 -->
<g id="node2" class="node">
<title>uc_0_0</title>
<ellipse fill="#f8fbff" stroke="#4b5563" cx="254.29" cy="-2203" rx="80.72" ry="25.41"/>
<text text-anchor="middle" x="254.29" y="-2206.2" font-family="Helvetica,sans-Serif" font-size="11.00">UC01</text>
<text text-anchor="middle" x="254.29" y="-2194.2" font-family="Helvetica,sans-Serif" font-size="11.00">Cadastrar Usuário</text>
</g>
<!-- usuario&#45;&gt;uc_0_0 -->
<g id="edge26" class="edge">
<title>usuario&#45;&gt;uc_0_0</title>
<path fill="none" stroke="#6b7280" stroke-width="1.2" d="M48.28,-1028.13C48.28,-1194.56 48.28,-2203 48.28,-2203 48.28,-2203 115.74,-2203 173.46,-2203"/>
</g>
<!-- uc_0_1 -->
<g id="node3" class="node">
<title>uc_0_1</title>
<ellipse fill="#f8fbff" stroke="#4b5563" cx="509.43" cy="-2203" rx="65.11" ry="25.41"/>
<text text-anchor="middle" x="509.43" y="-2206.2" font-family="Helvetica,sans-Serif" font-size="11.00">UC02</text>
<text text-anchor="middle" x="509.43" y="-2194.2" font-family="Helvetica,sans-Serif" font-size="11.00">Realizar Login</text>
</g>
<!-- usuario&#45;&gt;uc_0_1 -->
<g id="edge27" class="edge">
<title>usuario&#45;&gt;uc_0_1</title>
<path fill="none" stroke="#6b7280" stroke-width="1.2" d="M84.26,-1024C171.89,-1024 365.28,-1024 365.28,-1024 365.28,-1024 365.28,-2194.51 365.28,-2194.51 365.28,-2194.51 408.7,-2194.51 447.88,-2194.51"/>
</g>
<!-- uc_0_2 -->
<g id="node4" class="node">
<title>uc_0_2</title>
<ellipse fill="#f8fbff" stroke="#4b5563" cx="823.26" cy="-2203" rx="76.24" ry="25.41"/>
<text text-anchor="middle" x="823.26" y="-2206.2" font-family="Helvetica,sans-Serif" font-size="11.00">UC03</text>
<text text-anchor="middle" x="823.26" y="-2194.2" font-family="Helvetica,sans-Serif" font-size="11.00">Recuperar Senha</text>
</g>
<!-- usuario&#45;&gt;uc_0_2 -->
<g id="edge28" class="edge">
<title>usuario&#45;&gt;uc_0_2</title>
<path fill="none" stroke="#6b7280" stroke-width="1.2" d="M84.01,-1016C215.94,-1016 613.28,-1016 613.28,-1016 613.28,-1016 613.28,-2194.51 613.28,-2194.51 613.28,-2194.51 690.26,-2194.51 751,-2194.51"/>
</g>
<!-- uc_1_0 -->
<g id="node5" class="node">
<title>uc_1_0</title>
<ellipse fill="#f8fbff" stroke="#4b5563" cx="254.29" cy="-1966" rx="98.08" ry="25.41"/>
<text text-anchor="middle" x="254.29" y="-1969.2" font-family="Helvetica,sans-Serif" font-size="11.00">UC04</text>
<text text-anchor="middle" x="254.29" y="-1957.2" font-family="Helvetica,sans-Serif" font-size="11.00">Visualizar Painel Inicial</text>
</g>
<!-- usuario&#45;&gt;uc_1_0 -->
<g id="edge29" class="edge">
<title>usuario&#45;&gt;uc_1_0</title>
<path fill="none" stroke="#6b7280" stroke-width="1.2" d="M60.28,-1028.28C60.28,-1175.04 60.28,-1966 60.28,-1966 60.28,-1966 107.84,-1966 155.86,-1966"/>
</g>
<!-- uc_1_1 -->
<g id="node6" class="node">
<title>uc_1_1</title>
<ellipse fill="#f8fbff" stroke="#4b5563" cx="509.43" cy="-1966" rx="84.71" ry="25.41"/>
<text text-anchor="middle" x="509.43" y="-1969.2" font-family="Helvetica,sans-Serif" font-size="11.00">UC05</text>
<text text-anchor="middle" x="509.43" y="-1957.2" font-family="Helvetica,sans-Serif" font-size="11.00">Visualizar Histórico</text>
</g>
<!-- usuario&#45;&gt;uc_1_1 -->
<g id="edge30" class="edge">
<title>usuario&#45;&gt;uc_1_1</title>
<path fill="none" stroke="#6b7280" stroke-width="1.2" d="M84.24,-1022C176.79,-1022 389.28,-1022 389.28,-1022 389.28,-1022 389.28,-1957.51 389.28,-1957.51 389.28,-1957.51 407.25,-1957.51 429.29,-1957.51"/>
</g>
<!-- uc_1_2 -->
<g id="node7" class="node">
<title>uc_1_2</title>
<ellipse fill="#f8fbff" stroke="#4b5563" cx="823.26" cy="-1966" rx="156.96" ry="25.41"/>
<text text-anchor="middle" x="823.26" y="-1969.2" font-family="Helvetica,sans-Serif" font-size="11.00">UC06</text>
<text text-anchor="middle" x="823.26" y="-1957.2" font-family="Helvetica,sans-Serif" font-size="11.00">Visualizar Painel com Resumo Gráfico</text>
</g>
<!-- usuario&#45;&gt;uc_1_2 -->
<g id="edge31" class="edge">
<title>usuario&#45;&gt;uc_1_2</title>
<path fill="none" stroke="#6b7280" stroke-width="1.2" d="M84.27,-1012C227.61,-1012 686.28,-1012 686.28,-1012 686.28,-1012 686.28,-1840.03 686.28,-1953.24"/>
</g>
<!-- uc_1_3 -->
<g id="node8" class="node">
<title>uc_1_3</title>
<ellipse fill="#f8fbff" stroke="#4b5563" cx="1226.18" cy="-1966" rx="103.89" ry="25.41"/>
<text text-anchor="middle" x="1226.18" y="-1969.2" font-family="Helvetica,sans-Serif" font-size="11.00">UC28</text>
<text text-anchor="middle" x="1226.18" y="-1957.2" font-family="Helvetica,sans-Serif" font-size="11.00">Exportar Relatórios CSV</text>
</g>
<!-- usuario&#45;&gt;uc_1_3 -->
<g id="edge32" class="edge">
<title>usuario&#45;&gt;uc_1_3</title>
<path fill="none" stroke="#6b7280" stroke-width="1.2" d="M84.18,-1008C271.18,-1008 1016.28,-1008 1016.28,-1008 1016.28,-1008 1016.28,-1957.51 1016.28,-1957.51 1016.28,-1957.51 1073.36,-1957.51 1127.99,-1957.51"/>
</g>
<!-- uc_2_0 -->
<g id="node9" class="node">
<title>uc_2_0</title>
<ellipse fill="#f8fbff" stroke="#4b5563" cx="254.29" cy="-1655" rx="87.86" ry="25.41"/>
<text text-anchor="middle" x="254.29" y="-1658.2" font-family="Helvetica,sans-Serif" font-size="11.00">UC07</text>
<text text-anchor="middle" x="254.29" y="-1646.2" font-family="Helvetica,sans-Serif" font-size="11.00">Registrar Transação</text>
</g>
<!-- usuario&#45;&gt;uc_2_0 -->
<g id="edge33" class="edge">
<title>usuario&#45;&gt;uc_2_0</title>
<path fill="none" stroke="#6b7280" stroke-width="1.2" d="M84.33,-1026C122.03,-1026 171.28,-1026 171.28,-1026 171.28,-1026 171.28,-1571.94 171.28,-1646.58"/>
</g>
<!-- uc_2_1 -->
<g id="node10" class="node">
<title>uc_2_1</title>
<ellipse fill="#f8fbff" stroke="#4b5563" cx="509.43" cy="-1655" rx="74.91" ry="25.41"/>
<text text-anchor="middle" x="509.43" y="-1658.2" font-family="Helvetica,sans-Serif" font-size="11.00">UC08</text>
<text text-anchor="middle" x="509.43" y="-1646.2" font-family="Helvetica,sans-Serif" font-size="11.00">Editar Transação</text>
</g>
<!-- usuario&#45;&gt;uc_2_1 -->
<g id="edge34" class="edge">
<title>usuario&#45;&gt;uc_2_1</title>
<path fill="none" stroke="#6b7280" stroke-width="1.2" d="M84.27,-1020C179.24,-1020 401.28,-1020 401.28,-1020 401.28,-1020 401.28,-1646.51 401.28,-1646.51 401.28,-1646.51 418.11,-1646.51 438.5,-1646.51"/>
</g>
<!-- uc_2_2 -->
<g id="node11" class="node">
<title>uc_2_2</title>
<ellipse fill="#f8fbff" stroke="#4b5563" cx="823.26" cy="-1655" rx="80.72" ry="25.41"/>
<text text-anchor="middle" x="823.26" y="-1658.2" font-family="Helvetica,sans-Serif" font-size="11.00">UC09</text>
<text text-anchor="middle" x="823.26" y="-1646.2" font-family="Helvetica,sans-Serif" font-size="11.00">Deletar Transação</text>
</g>
<!-- usuario&#45;&gt;uc_2_2 -->
<g id="edge35" class="edge">
<title>usuario&#45;&gt;uc_2_2</title>
<path fill="none" stroke="#6b7280" stroke-width="1.2" d="M84.38,-1014C219.5,-1014 631.28,-1014 631.28,-1014 631.28,-1014 631.28,-1646.51 631.28,-1646.51 631.28,-1646.51 693.51,-1646.51 747.11,-1646.51"/>
</g>
<!-- uc_2_3 -->
<g id="node12" class="node">
<title>uc_2_3</title>
<ellipse fill="#f8fbff" stroke="#4b5563" cx="1226.18" cy="-1655" rx="133.79" ry="25.41"/>
<text text-anchor="middle" x="1226.18" y="-1658.2" font-family="Helvetica,sans-Serif" font-size="11.00">UC25</text>
<text text-anchor="middle" x="1226.18" y="-1646.2" font-family="Helvetica,sans-Serif" font-size="11.00">Registrar Transação Recorrente</text>
</g>
<!-- usuario&#45;&gt;uc_2_3 -->
<g id="edge36" class="edge">
<title>usuario&#45;&gt;uc_2_3</title>
<path fill="none" stroke="#6b7280" stroke-width="1.2" d="M84.19,-1006C283.18,-1006 1118.28,-1006 1118.28,-1006 1118.28,-1006 1118.28,-1542.47 1118.28,-1639.91"/>
</g>
<!-- uc_2_4 -->
<g id="node13" class="node">
<title>uc_2_4</title>
<ellipse fill="#f8fbff" stroke="#4b5563" cx="1593.05" cy="-1655" rx="120.83" ry="25.41"/>
<text text-anchor="middle" x="1593.05" y="-1658.2" font-family="Helvetica,sans-Serif" font-size="11.00">UC26</text>
<text text-anchor="middle" x="1593.05" y="-1646.2" font-family="Helvetica,sans-Serif" font-size="11.00">Editar Transação Recorrente</text>
</g>
<!-- usuario&#45;&gt;uc_2_4 -->
<g id="edge37" class="edge">
<title>usuario&#45;&gt;uc_2_4</title>
<path fill="none" stroke="#6b7280" stroke-width="1.2" d="M12.28,-1028.22C12.28,-1065.59 12.28,-1134.91 12.28,-1134.91 12.28,-1134.91 1489.28,-1134.91 1489.28,-1134.91 1489.28,-1134.91 1489.28,-1561.13 1489.28,-1641.88"/>
</g>
<!-- uc_2_5 -->
<g id="node14" class="node">
<title>uc_2_5</title>
<ellipse fill="#f8fbff" stroke="#4b5563" cx="1911.12" cy="-1655" rx="125.32" ry="25.41"/>
<text text-anchor="middle" x="1911.12" y="-1658.2" font-family="Helvetica,sans-Serif" font-size="11.00">UC27</text>
<text text-anchor="middle" x="1911.12" y="-1646.2" font-family="Helvetica,sans-Serif" font-size="11.00">Apagar Transação Recorrente</text>
</g>
<!-- usuario&#45;&gt;uc_2_5 -->
<g id="edge38" class="edge">
<title>usuario&#45;&gt;uc_2_5</title>
<path fill="none" stroke="#6b7280" stroke-width="1.2" d="M24.28,-1028.3C24.28,-1056.22 24.28,-1099.27 24.28,-1099.27 24.28,-1099.27 1803.28,-1099.27 1803.28,-1099.27 1803.28,-1099.27 1803.28,-1557.65 1803.28,-1641.81"/>
</g>
<!-- uc_3_0 -->
<g id="node15" class="node">
<title>uc_3_0</title>
<ellipse fill="#f8fbff" stroke="#4b5563" cx="254.29" cy="-1196" rx="69.09" ry="25.41"/>
<text text-anchor="middle" x="254.29" y="-1199.2" font-family="Helvetica,sans-Serif" font-size="11.00">UC10</text>
<text text-anchor="middle" x="254.29" y="-1187.2" font-family="Helvetica,sans-Serif" font-size="11.00">Criar Categoria</text>
</g>
<!-- usuario&#45;&gt;uc_3_0 -->
<g id="edge39" class="edge">
<title>usuario&#45;&gt;uc_3_0</title>
<path fill="none" stroke="#6b7280" stroke-width="1.2" d="M72.28,-1028.04C72.28,-1078.84 72.28,-1196 72.28,-1196 72.28,-1196 133.52,-1196 184.96,-1196"/>
</g>
<!-- uc_3_1 -->
<g id="node16" class="node">
<title>uc_3_1</title>
<ellipse fill="#f8fbff" stroke="#4b5563" cx="509.43" cy="-1196" rx="73.58" ry="25.41"/>
<text text-anchor="middle" x="509.43" y="-1199.2" font-family="Helvetica,sans-Serif" font-size="11.00">UC11</text>
<text text-anchor="middle" x="509.43" y="-1187.2" font-family="Helvetica,sans-Serif" font-size="11.00">Editar Categoria</text>
</g>
<!-- usuario&#45;&gt;uc_3_1 -->
<g id="edge40" class="edge">
<title>usuario&#45;&gt;uc_3_1</title>
<path fill="none" stroke="#6b7280" stroke-width="1.2" d="M84.4,-1018C203.81,-1018 534.28,-1018 534.28,-1018 534.28,-1018 534.28,-1123.41 534.28,-1171.99"/>
</g>
<!-- uc_3_2 -->
<g id="node17" class="node">
<title>uc_3_2</title>
<ellipse fill="#f8fbff" stroke="#4b5563" cx="823.26" cy="-1196" rx="78.48" ry="25.41"/>
<text text-anchor="middle" x="823.26" y="-1199.2" font-family="Helvetica,sans-Serif" font-size="11.00">UC12</text>
<text text-anchor="middle" x="823.26" y="-1187.2" font-family="Helvetica,sans-Serif" font-size="11.00">Apagar Categoria</text>
</g>
<!-- usuario&#45;&gt;uc_3_2 -->
<g id="edge41" class="edge">
<title>usuario&#45;&gt;uc_3_2</title>
<path fill="none" stroke="#6b7280" stroke-width="1.2" d="M84.04,-1010C249.95,-1010 850.28,-1010 850.28,-1010 850.28,-1010 850.28,-1121.83 850.28,-1172.06"/>
</g>
<!-- uc_3_3 -->
<g id="node18" class="node">
<title>uc_3_3</title>
<ellipse fill="#f8fbff" stroke="#4b5563" cx="1226.18" cy="-1196" rx="82.96" ry="25.41"/>
<text text-anchor="middle" x="1226.18" y="-1199.2" font-family="Helvetica,sans-Serif" font-size="11.00">UC13</text>
<text text-anchor="middle" x="1226.18" y="-1187.2" font-family="Helvetica,sans-Serif" font-size="11.00">Criar Subcategoria</text>
</g>
<!-- usuario&#45;&gt;uc_3_3 -->
<g id="edge42" class="edge">
<title>usuario&#45;&gt;uc_3_3</title>
<path fill="none" stroke="#6b7280" stroke-width="1.2" d="M84.05,-1004C286.31,-1004 1149.28,-1004 1149.28,-1004 1149.28,-1004 1149.28,-1147.74 1149.28,-1186.48"/>
</g>
<!-- uc_3_4 -->
<g id="node19" class="node">
<title>uc_3_4</title>
<ellipse fill="#f8fbff" stroke="#4b5563" cx="1593.05" cy="-1196" rx="86.95" ry="25.41"/>
<text text-anchor="middle" x="1593.05" y="-1199.2" font-family="Helvetica,sans-Serif" font-size="11.00">UC14</text>
<text text-anchor="middle" x="1593.05" y="-1187.2" font-family="Helvetica,sans-Serif" font-size="11.00">Editar Subcategoria</text>
</g>
<!-- usuario&#45;&gt;uc_3_4 -->
<g id="edge43" class="edge">
<title>usuario&#45;&gt;uc_3_4</title>
<path fill="none" stroke="#6b7280" stroke-width="1.2" d="M84.25,-1002C325.73,-1002 1520.28,-1002 1520.28,-1002 1520.28,-1002 1520.28,-1137.57 1520.28,-1182.05"/>
</g>
<!-- uc_3_5 -->
<g id="node20" class="node">
<title>uc_3_5</title>
<ellipse fill="#f8fbff" stroke="#4b5563" cx="1911.12" cy="-1196" rx="91.43" ry="25.41"/>
<text text-anchor="middle" x="1911.12" y="-1199.2" font-family="Helvetica,sans-Serif" font-size="11.00">UC15</text>
<text text-anchor="middle" x="1911.12" y="-1187.2" font-family="Helvetica,sans-Serif" font-size="11.00">Apagar Subcategoria</text>
</g>
<!-- usuario&#45;&gt;uc_3_5 -->
<g id="edge44" class="edge">
<title>usuario&#45;&gt;uc_3_5</title>
<path fill="none" stroke="#6b7280" stroke-width="1.2" d="M36.28,-1028.17C36.28,-1044.56 36.28,-1063.64 36.28,-1063.64 36.28,-1063.64 1834.28,-1063.64 1834.28,-1063.64 1834.28,-1063.64 1834.28,-1147.69 1834.28,-1181.83"/>
</g>
<!-- uc_4_0 -->
<g id="node21" class="node">
<title>uc_4_0</title>
<ellipse fill="#f8fbff" stroke="#4b5563" cx="254.29" cy="-737" rx="74.91" ry="25.41"/>
<text text-anchor="middle" x="254.29" y="-740.2" font-family="Helvetica,sans-Serif" font-size="11.00">UC16</text>
<text text-anchor="middle" x="254.29" y="-728.2" font-family="Helvetica,sans-Serif" font-size="11.00">Criar Orçamento</text>
</g>
<!-- usuario&#45;&gt;uc_4_0 -->
<g id="edge45" class="edge">
<title>usuario&#45;&gt;uc_4_0</title>
<path fill="none" stroke="#6b7280" stroke-width="1.2" d="M67.28,-981.69C67.28,-916.48 67.28,-737 67.28,-737 67.28,-737 127.27,-737 179.3,-737"/>
</g>
<!-- uc_4_1 -->
<g id="node22" class="node">
<title>uc_4_1</title>
<ellipse fill="#f8fbff" stroke="#4b5563" cx="509.43" cy="-737" rx="79.39" ry="25.41"/>
<text text-anchor="middle" x="509.43" y="-740.2" font-family="Helvetica,sans-Serif" font-size="11.00">UC17</text>
<text text-anchor="middle" x="509.43" y="-728.2" font-family="Helvetica,sans-Serif" font-size="11.00">Editar Orçamento</text>
</g>
<!-- usuario&#45;&gt;uc_4_1 -->
<g id="edge46" class="edge">
<title>usuario&#45;&gt;uc_4_1</title>
<path fill="none" stroke="#6b7280" stroke-width="1.2" d="M84.1,-990C194.75,-990 485.28,-990 485.28,-990 485.28,-990 485.28,-824.58 485.28,-761.26"/>
</g>
<!-- uc_4_2 -->
<g id="node23" class="node">
<title>uc_4_2</title>
<ellipse fill="#f8fbff" stroke="#4b5563" cx="823.26" cy="-737" rx="84.29" ry="25.41"/>
<text text-anchor="middle" x="823.26" y="-740.2" font-family="Helvetica,sans-Serif" font-size="11.00">UC18</text>
<text text-anchor="middle" x="823.26" y="-728.2" font-family="Helvetica,sans-Serif" font-size="11.00">Apagar Orçamento</text>
</g>
<!-- usuario&#45;&gt;uc_4_2 -->
<g id="edge47" class="edge">
<title>usuario&#45;&gt;uc_4_2</title>
<path fill="none" stroke="#6b7280" stroke-width="1.2" d="M84.23,-996C243.28,-996 797.28,-996 797.28,-996 797.28,-996 797.28,-825.84 797.28,-761.37"/>
</g>
<!-- uc_5_0 -->
<g id="node24" class="node">
<title>uc_5_0</title>
<ellipse fill="#f8fbff" stroke="#4b5563" cx="254.29" cy="-500" rx="89.19" ry="25.41"/>
<text text-anchor="middle" x="254.29" y="-503.2" font-family="Helvetica,sans-Serif" font-size="11.00">UC19</text>
<text text-anchor="middle" x="254.29" y="-491.2" font-family="Helvetica,sans-Serif" font-size="11.00">Registrar Instituição</text>
</g>
<!-- usuario&#45;&gt;uc_5_0 -->
<g id="edge48" class="edge">
<title>usuario&#45;&gt;uc_5_0</title>
<path fill="none" stroke="#6b7280" stroke-width="1.2" d="M84.17,-984C123.22,-984 175.28,-984 175.28,-984 175.28,-984 175.28,-586.5 175.28,-511.96"/>
</g>
<!-- uc_5_1 -->
<g id="node25" class="node">
<title>uc_5_1</title>
<ellipse fill="#f8fbff" stroke="#4b5563" cx="509.43" cy="-500" rx="76.24" ry="25.41"/>
<text text-anchor="middle" x="509.43" y="-503.2" font-family="Helvetica,sans-Serif" font-size="11.00">UC20</text>
<text text-anchor="middle" x="509.43" y="-491.2" font-family="Helvetica,sans-Serif" font-size="11.00">Editar Instituição</text>
</g>
<!-- usuario&#45;&gt;uc_5_1 -->
<g id="edge49" class="edge">
<title>usuario&#45;&gt;uc_5_1</title>
<path fill="none" stroke="#6b7280" stroke-width="1.2" d="M84.23,-988C181.54,-988 413.28,-988 413.28,-988 413.28,-988 413.28,-508.49 413.28,-508.49 413.28,-508.49 423.39,-508.49 437.05,-508.49"/>
</g>
<!-- uc_5_2 -->
<g id="node26" class="node">
<title>uc_5_2</title>
<ellipse fill="#f8fbff" stroke="#4b5563" cx="823.26" cy="-500" rx="80.72" ry="25.41"/>
<text text-anchor="middle" x="823.26" y="-503.2" font-family="Helvetica,sans-Serif" font-size="11.00">UC21</text>
<text text-anchor="middle" x="823.26" y="-491.2" font-family="Helvetica,sans-Serif" font-size="11.00">Apagar Instituição</text>
</g>
<!-- usuario&#45;&gt;uc_5_2 -->
<g id="edge50" class="edge">
<title>usuario&#45;&gt;uc_5_2</title>
<path fill="none" stroke="#6b7280" stroke-width="1.2" d="M84.22,-992C221.94,-992 649.28,-992 649.28,-992 649.28,-992 649.28,-508.49 649.28,-508.49 649.28,-508.49 700.39,-508.49 747.2,-508.49"/>
</g>
<!-- uc_5_3 -->
<g id="node27" class="node">
<title>uc_5_3</title>
<ellipse fill="#f8fbff" stroke="#4b5563" cx="1226.18" cy="-500" rx="71.34" ry="25.41"/>
<text text-anchor="middle" x="1226.18" y="-503.2" font-family="Helvetica,sans-Serif" font-size="11.00">UC22</text>
<text text-anchor="middle" x="1226.18" y="-491.2" font-family="Helvetica,sans-Serif" font-size="11.00">Registrar Conta</text>
</g>
<!-- usuario&#45;&gt;uc_5_3 -->
<g id="edge51" class="edge">
<title>usuario&#45;&gt;uc_5_3</title>
<path fill="none" stroke="#6b7280" stroke-width="1.2" d="M84.15,-1000C295.12,-1000 1226.28,-1000 1226.28,-1000 1226.28,-1000 1226.28,-627.37 1226.28,-525.48"/>
</g>
<!-- uc_5_4 -->
<g id="node28" class="node">
<title>uc_5_4</title>
<ellipse fill="#f8fbff" stroke="#4b5563" cx="1593.05" cy="-500" rx="58.88" ry="25.41"/>
<text text-anchor="middle" x="1593.05" y="-503.2" font-family="Helvetica,sans-Serif" font-size="11.00">UC23</text>
<text text-anchor="middle" x="1593.05" y="-491.2" font-family="Helvetica,sans-Serif" font-size="11.00">Editar Conta</text>
</g>
<!-- usuario&#45;&gt;uc_5_4 -->
<g id="edge52" class="edge">
<title>usuario&#45;&gt;uc_5_4</title>
<path fill="none" stroke="#6b7280" stroke-width="1.2" d="M17.28,-981.81C17.28,-935.42 17.28,-835.64 17.28,-835.64 17.28,-835.64 1593.28,-835.64 1593.28,-835.64 1593.28,-835.64 1593.28,-603.83 1593.28,-525.5"/>
</g>
<!-- uc_5_5 -->
<g id="node29" class="node">
<title>uc_5_5</title>
<ellipse fill="#f8fbff" stroke="#4b5563" cx="1911.12" cy="-500" rx="63.78" ry="25.41"/>
<text text-anchor="middle" x="1911.12" y="-503.2" font-family="Helvetica,sans-Serif" font-size="11.00">UC24</text>
<text text-anchor="middle" x="1911.12" y="-491.2" font-family="Helvetica,sans-Serif" font-size="11.00">Apagar Conta</text>
</g>
<!-- usuario&#45;&gt;uc_5_5 -->
<g id="edge53" class="edge">
<title>usuario&#45;&gt;uc_5_5</title>
<path fill="none" stroke="#6b7280" stroke-width="1.2" d="M34.28,-981.72C34.28,-953.25 34.28,-908.82 34.28,-908.82 34.28,-908.82 1911.28,-908.82 1911.28,-908.82 1911.28,-908.82 1911.28,-615.07 1911.28,-525.57"/>
</g>
<!-- uc_6_0 -->
<g id="node30" class="node">
<title>uc_6_0</title>
<ellipse fill="#f8fbff" stroke="#4b5563" cx="254.29" cy="-41" rx="92.76" ry="25.41"/>
<text text-anchor="middle" x="254.29" y="-44.2" font-family="Helvetica,sans-Serif" font-size="11.00">UC29</text>
<text text-anchor="middle" x="254.29" y="-32.2" font-family="Helvetica,sans-Serif" font-size="11.00">Receber Notificações</text>
</g>
<!-- usuario&#45;&gt;uc_6_0 -->
<g id="edge54" class="edge">
<title>usuario&#45;&gt;uc_6_0</title>
<path fill="none" stroke="#6b7280" stroke-width="1.2" d="M51.28,-981.65C51.28,-834.43 51.28,-41 51.28,-41 51.28,-41 107.94,-41 161.4,-41"/>
</g>
<!-- uc_6_1 -->
<g id="node31" class="node">
<title>uc_6_1</title>
<ellipse fill="#f8fbff" stroke="#4b5563" cx="509.43" cy="-41" rx="74.49" ry="25.41"/>
<text text-anchor="middle" x="509.43" y="-44.2" font-family="Helvetica,sans-Serif" font-size="11.00">UC30</text>
<text text-anchor="middle" x="509.43" y="-32.2" font-family="Helvetica,sans-Serif" font-size="11.00">Enviar Feedback</text>
</g>
<!-- usuario&#45;&gt;uc_6_1 -->
<g id="edge55" class="edge">
<title>usuario&#45;&gt;uc_6_1</title>
<path fill="none" stroke="#6b7280" stroke-width="1.2" d="M84.12,-986C174.17,-986 377.28,-986 377.28,-986 377.28,-986 377.28,-49.49 377.28,-49.49 377.28,-49.49 407.54,-49.49 439.1,-49.49"/>
</g>
<!-- uc_6_2 -->
<g id="node32" class="node">
<title>uc_6_2</title>
<ellipse fill="#f8fbff" stroke="#4b5563" cx="823.26" cy="-41" rx="118.17" ry="25.41"/>
<text text-anchor="middle" x="823.26" y="-44.2" font-family="Helvetica,sans-Serif" font-size="11.00">UC31</text>
<text text-anchor="middle" x="823.26" y="-32.2" font-family="Helvetica,sans-Serif" font-size="11.00">Visualizar Dicas Financeiras</text>
</g>
<!-- usuario&#45;&gt;uc_6_2 -->
<g id="edge56" class="edge">
<title>usuario&#45;&gt;uc_6_2</title>
<path fill="none" stroke="#6b7280" stroke-width="1.2" d="M84.04,-994C232.36,-994 722.28,-994 722.28,-994 722.28,-994 722.28,-170.3 722.28,-54.47"/>
</g>
<!-- uc_6_3 -->
<g id="node33" class="node">
<title>uc_6_3</title>
<ellipse fill="#f8fbff" stroke="#4b5563" cx="1226.18" cy="-41" rx="173.9" ry="25.41"/>
<text text-anchor="middle" x="1226.18" y="-44.2" font-family="Helvetica,sans-Serif" font-size="11.00">UC32</text>
<text text-anchor="middle" x="1226.18" y="-32.2" font-family="Helvetica,sans-Serif" font-size="11.00">Acessar Materiais de Educação Financeira</text>
</g>
<!-- usuario&#45;&gt;uc_6_3 -->
<g id="edge57" class="edge">
<title>usuario&#45;&gt;uc_6_3</title>
<path fill="none" stroke="#6b7280" stroke-width="1.2" d="M84.03,-998C277.53,-998 1073.28,-998 1073.28,-998 1073.28,-998 1073.28,-165.63 1073.28,-53.45"/>
</g>
<!-- uc_0_0&#45;&gt;uc_0_1 -->
<!-- uc_0_1&#45;&gt;uc_0_2 -->
<!-- uc_1_0&#45;&gt;uc_1_1 -->
<!-- uc_1_1&#45;&gt;uc_1_2 -->
<!-- uc_1_2&#45;&gt;uc_1_3 -->
<!-- uc_2_0&#45;&gt;uc_2_1 -->
<!-- uc_2_1&#45;&gt;uc_2_2 -->
<!-- uc_2_2&#45;&gt;uc_2_3 -->
<!-- uc_2_3&#45;&gt;uc_2_4 -->
<!-- uc_2_4&#45;&gt;uc_2_5 -->
<!-- uc_3_0&#45;&gt;uc_3_1 -->
<!-- uc_3_1&#45;&gt;uc_3_2 -->
<!-- uc_3_2&#45;&gt;uc_3_3 -->
<!-- uc_3_3&#45;&gt;uc_3_4 -->
<!-- uc_3_4&#45;&gt;uc_3_5 -->
<!-- uc_4_0&#45;&gt;uc_4_1 -->
<!-- uc_4_1&#45;&gt;uc_4_2 -->
<!-- uc_5_0&#45;&gt;uc_5_1 -->
<!-- uc_5_1&#45;&gt;uc_5_2 -->
<!-- uc_5_2&#45;&gt;uc_5_3 -->
<!-- uc_5_3&#45;&gt;uc_5_4 -->
<!-- uc_5_4&#45;&gt;uc_5_5 -->
<!-- uc_6_0&#45;&gt;uc_6_1 -->
<!-- uc_6_1&#45;&gt;uc_6_2 -->
<!-- uc_6_2&#45;&gt;uc_6_3 -->
</g>
</svg>
